<mxfile host="app.diagrams.net" agent="Mozilla/5.0 (Macintosh; Intel Mac OS X 10_15_7) AppleWebKit/537.36 (KHTML, like Gecko) Chrome/130.0.0.0 Safari/537.36" version="24.8.6">
  <diagram name="Page-1" id="nh4jwneAX2I31Z53x2l4">
    <mxGraphModel dx="4911" dy="1260" grid="1" gridSize="10" guides="1" tooltips="1" connect="1" arrows="1" fold="1" page="1" pageScale="1" pageWidth="3000" pageHeight="3000" math="0" shadow="0">
      <root>
        <mxCell id="0" />
        <mxCell id="1" parent="0" />
        <mxCell id="LP7Ed1BWK_VpSIzqsCGS-2" value="" style="rounded=0;whiteSpace=wrap;html=1;movable=1;resizable=1;rotatable=1;deletable=1;editable=1;locked=0;connectable=1;sketch=1;curveFitting=1;jiggle=2;" vertex="1" parent="1">
          <mxGeometry x="-2160" y="680" width="790" height="490" as="geometry" />
        </mxCell>
        <mxCell id="LP7Ed1BWK_VpSIzqsCGS-1" value="&lt;span style=&quot;font-size: 43px;&quot;&gt;Development environment: frontend architecture&lt;/span&gt;" style="text;strokeColor=none;fillColor=none;html=1;fontSize=24;fontStyle=1;verticalAlign=middle;align=center;" vertex="1" parent="1">
          <mxGeometry x="-2230" y="580" width="1000" height="40" as="geometry" />
        </mxCell>
        <mxCell id="LP7Ed1BWK_VpSIzqsCGS-23" style="edgeStyle=orthogonalEdgeStyle;rounded=0;orthogonalLoop=1;jettySize=auto;html=1;exitX=0.5;exitY=1;exitDx=0;exitDy=0;" edge="1" parent="1" source="LP7Ed1BWK_VpSIzqsCGS-4" target="LP7Ed1BWK_VpSIzqsCGS-13">
          <mxGeometry relative="1" as="geometry">
            <Array as="points">
              <mxPoint x="-1760" y="760" />
            </Array>
          </mxGeometry>
        </mxCell>
        <mxCell id="LP7Ed1BWK_VpSIzqsCGS-24" style="edgeStyle=orthogonalEdgeStyle;rounded=0;orthogonalLoop=1;jettySize=auto;html=1;exitX=0.25;exitY=1;exitDx=0;exitDy=0;" edge="1" parent="1" source="LP7Ed1BWK_VpSIzqsCGS-4" target="LP7Ed1BWK_VpSIzqsCGS-5">
          <mxGeometry relative="1" as="geometry">
            <Array as="points">
              <mxPoint x="-1990" y="760" />
            </Array>
          </mxGeometry>
        </mxCell>
        <mxCell id="LP7Ed1BWK_VpSIzqsCGS-25" value="Lazy loads" style="edgeLabel;html=1;align=center;verticalAlign=middle;resizable=0;points=[];fontSize=14;" vertex="1" connectable="0" parent="LP7Ed1BWK_VpSIzqsCGS-24">
          <mxGeometry x="-0.0478" relative="1" as="geometry">
            <mxPoint x="-5" y="42" as="offset" />
          </mxGeometry>
        </mxCell>
        <mxCell id="LP7Ed1BWK_VpSIzqsCGS-4" value="&lt;font style=&quot;font-size: 26px;&quot;&gt;Platform application @localhost:4200&lt;/font&gt;" style="text;fillColor=#b1ddf0;html=1;fontSize=24;fontStyle=1;verticalAlign=middle;align=center;rounded=0;sketch=1;curveFitting=1;jiggle=2;strokeColor=#10739e;" vertex="1" parent="1">
          <mxGeometry x="-2050" y="720" width="575" height="40" as="geometry" />
        </mxCell>
        <mxCell id="LP7Ed1BWK_VpSIzqsCGS-5" value="Appointment application" style="rounded=0;whiteSpace=wrap;html=1;fillColor=#dae8fc;strokeColor=#6c8ebf;sketch=1;curveFitting=1;jiggle=2;fontSize=16;" vertex="1" parent="1">
          <mxGeometry x="-2095" y="850" width="200" height="120" as="geometry" />
        </mxCell>
        <mxCell id="LP7Ed1BWK_VpSIzqsCGS-31" style="edgeStyle=orthogonalEdgeStyle;rounded=0;orthogonalLoop=1;jettySize=auto;html=1;entryX=0.5;entryY=1;entryDx=0;entryDy=0;" edge="1" parent="1" source="LP7Ed1BWK_VpSIzqsCGS-8" target="LP7Ed1BWK_VpSIzqsCGS-16">
          <mxGeometry relative="1" as="geometry">
            <mxPoint x="-1780" y="1230" as="targetPoint" />
          </mxGeometry>
        </mxCell>
        <mxCell id="LP7Ed1BWK_VpSIzqsCGS-32" style="edgeStyle=orthogonalEdgeStyle;rounded=0;orthogonalLoop=1;jettySize=auto;html=1;" edge="1" parent="1" source="LP7Ed1BWK_VpSIzqsCGS-8" target="LP7Ed1BWK_VpSIzqsCGS-5">
          <mxGeometry relative="1" as="geometry">
            <Array as="points">
              <mxPoint x="-2090" y="1280" />
              <mxPoint x="-2090" y="1280" />
            </Array>
          </mxGeometry>
        </mxCell>
        <mxCell id="LP7Ed1BWK_VpSIzqsCGS-33" style="edgeStyle=orthogonalEdgeStyle;rounded=0;orthogonalLoop=1;jettySize=auto;html=1;entryX=0.5;entryY=1;entryDx=0;entryDy=0;exitX=0.973;exitY=-0.008;exitDx=0;exitDy=0;exitPerimeter=0;" edge="1" parent="1" source="LP7Ed1BWK_VpSIzqsCGS-8">
          <mxGeometry relative="1" as="geometry">
            <mxPoint x="-1850" y="1280" as="sourcePoint" />
            <mxPoint x="-1762.45" y="969.9999999999998" as="targetPoint" />
            <Array as="points">
              <mxPoint x="-1762" y="1279" />
            </Array>
          </mxGeometry>
        </mxCell>
        <mxCell id="LP7Ed1BWK_VpSIzqsCGS-8" value="&lt;font style=&quot;font-size: 15px;&quot;&gt;UI library&lt;/font&gt;" style="rounded=1;whiteSpace=wrap;html=1;sketch=1;curveFitting=1;jiggle=2;" vertex="1" parent="1">
          <mxGeometry x="-2130" y="1280" width="280" height="80" as="geometry" />
        </mxCell>
        <mxCell id="LP7Ed1BWK_VpSIzqsCGS-13" value="&lt;font style=&quot;font-size: 16px;&quot;&gt;Potential application&lt;/font&gt;" style="rounded=0;whiteSpace=wrap;html=1;fillColor=#fff2cc;strokeColor=#d6b656;sketch=1;curveFitting=1;jiggle=2;" vertex="1" parent="1">
          <mxGeometry x="-1862.5" y="850" width="200" height="120" as="geometry" />
        </mxCell>
        <mxCell id="LP7Ed1BWK_VpSIzqsCGS-28" value="URL: /appointments" style="text;html=1;align=center;verticalAlign=middle;whiteSpace=wrap;rounded=0;fontSize=13;" vertex="1" parent="1">
          <mxGeometry x="-2057.5" y="930" width="125" height="30" as="geometry" />
        </mxCell>
        <mxCell id="LP7Ed1BWK_VpSIzqsCGS-29" value="&lt;span style=&quot;font-size: 12px;&quot;&gt;URL: /xyz&lt;/span&gt;" style="text;html=1;align=center;verticalAlign=middle;whiteSpace=wrap;rounded=0;fontSize=13;" vertex="1" parent="1">
          <mxGeometry x="-1850" y="930" width="160" height="30" as="geometry" />
        </mxCell>
        <mxCell id="LP7Ed1BWK_VpSIzqsCGS-37" value="" style="edgeStyle=orthogonalEdgeStyle;rounded=0;orthogonalLoop=1;jettySize=auto;html=1;exitX=0.904;exitY=1.016;exitDx=0;exitDy=0;entryX=0.5;entryY=0;entryDx=0;entryDy=0;exitPerimeter=0;" edge="1" parent="1" source="LP7Ed1BWK_VpSIzqsCGS-4" target="LP7Ed1BWK_VpSIzqsCGS-16">
          <mxGeometry relative="1" as="geometry">
            <mxPoint x="-1867.5" y="800" as="sourcePoint" />
            <mxPoint x="-1530" y="870" as="targetPoint" />
            <Array as="points" />
          </mxGeometry>
        </mxCell>
        <mxCell id="LP7Ed1BWK_VpSIzqsCGS-16" value="&lt;font style=&quot;font-size: 16px;&quot;&gt;Potential application&lt;/font&gt;" style="rounded=0;whiteSpace=wrap;html=1;fillColor=#f8cecc;strokeColor=#b85450;sketch=1;curveFitting=1;jiggle=2;" vertex="1" parent="1">
          <mxGeometry x="-1630" y="850" width="200" height="120" as="geometry" />
        </mxCell>
        <mxCell id="LP7Ed1BWK_VpSIzqsCGS-38" value="Lazy loads" style="edgeLabel;html=1;align=center;verticalAlign=middle;resizable=0;points=[];fontSize=15;" vertex="1" connectable="0" parent="1">
          <mxGeometry x="-1762.497894736842" y="800.0000000000002" as="geometry" />
        </mxCell>
        <mxCell id="LP7Ed1BWK_VpSIzqsCGS-39" value="Lazy loads" style="edgeLabel;html=1;align=center;verticalAlign=middle;resizable=0;points=[];fontSize=14;" vertex="1" connectable="0" parent="1">
          <mxGeometry x="-1529.997894736842" y="800.0000000000002" as="geometry" />
        </mxCell>
        <mxCell id="LP7Ed1BWK_VpSIzqsCGS-30" value="URL: /xyz" style="text;html=1;align=center;verticalAlign=middle;whiteSpace=wrap;rounded=0;fontSize=13;" vertex="1" parent="1">
          <mxGeometry x="-1560" y="930" width="60" height="30" as="geometry" />
        </mxCell>
        <mxCell id="LP7Ed1BWK_VpSIzqsCGS-41" value="" style="strokeWidth=2;html=1;shape=mxgraph.flowchart.annotation_2;align=left;labelPosition=right;pointerEvents=1;" vertex="1" parent="1">
          <mxGeometry x="-2200" y="1270" width="50" height="100" as="geometry" />
        </mxCell>
        <mxCell id="LP7Ed1BWK_VpSIzqsCGS-42" value="shares UI components&amp;nbsp;" style="text;html=1;align=center;verticalAlign=middle;whiteSpace=wrap;rounded=0;fontSize=19;" vertex="1" parent="1">
          <mxGeometry x="-2410" y="1305" width="200" height="30" as="geometry" />
        </mxCell>
        <mxCell id="LP7Ed1BWK_VpSIzqsCGS-44" style="edgeStyle=orthogonalEdgeStyle;rounded=0;orthogonalLoop=1;jettySize=auto;html=1;exitX=0.25;exitY=0;exitDx=0;exitDy=0;" edge="1" parent="1" source="LP7Ed1BWK_VpSIzqsCGS-8">
          <mxGeometry relative="1" as="geometry">
            <mxPoint x="-2060" y="1171" as="targetPoint" />
            <Array as="points">
              <mxPoint x="-2060" y="1171" />
            </Array>
          </mxGeometry>
        </mxCell>
        <mxCell id="LP7Ed1BWK_VpSIzqsCGS-46" value="&lt;font style=&quot;font-size: 31px;&quot;&gt;Nx setup&lt;/font&gt;" style="text;strokeColor=default;fillColor=none;html=1;fontSize=24;fontStyle=1;verticalAlign=middle;align=center;rounded=0;sketch=1;curveFitting=1;jiggle=2;" vertex="1" parent="1">
          <mxGeometry x="-2460" y="700" width="210" height="35" as="geometry" />
        </mxCell>
      </root>
    </mxGraphModel>
  </diagram>
</mxfile>
